<svg width="40" height="36" viewBox="0 0 40 36" fill="none" xmlns="http://www.w3.org/2000/svg">
<circle cx="17.5556" cy="10.2407" r="3.65741" stroke="#0D1222" stroke-width="1.46296"/>
<mask id="path-2-inside-1_3_19" fill="white">
<path d="M7.31482 27.7963C7.31482 22.1405 11.8998 17.5555 17.5556 17.5555C23.2114 17.5555 27.7963 22.1405 27.7963 27.7963V29.2592H7.31482V27.7963Z"/>
</mask>
<path d="M27.7963 29.2592V30.7222H29.2593V29.2592H27.7963ZM7.31482 29.2592H5.85186V30.7222H7.31482V29.2592ZM26.3333 27.7963V29.2592H29.2593V27.7963H26.3333ZM27.7963 27.7963H7.31482V30.7222H27.7963V27.7963ZM8.77778 29.2592V27.7963H5.85186V29.2592H8.77778ZM17.5556 19.0185C22.4034 19.0185 26.3333 22.9484 26.3333 27.7963H29.2593C29.2593 21.3325 24.0193 16.0926 17.5556 16.0926V19.0185ZM17.5556 16.0926C11.0918 16.0926 5.85186 21.3325 5.85186 27.7963H8.77778C8.77778 22.9484 12.7077 19.0185 17.5556 19.0185V16.0926Z" fill="#0D1222" mask="url(#path-2-inside-1_3_19)"/>
</svg>
