<svg width="33" height="33" viewBox="0 0 33 33" fill="none" xmlns="http://www.w3.org/2000/svg">
<path d="M24.5795 12.4284L26.4314 27.2442C26.5853 28.4752 25.6254 29.5625 24.3849 29.5625H8.61515C7.37456 29.5625 6.4147 28.4752 6.56858 27.2442L8.42055 12.4284C8.6031 10.968 10.2126 10.1633 11.4904 10.8935L14.7945 12.7816C15.8513 13.3854 17.1487 13.3854 18.2055 12.7816L21.5096 10.8935C22.7874 10.1633 24.3969 10.968 24.5795 12.4284Z" stroke="#0D1222" stroke-width="1.375"/>
<path d="M20.625 8.25V5.51432C20.625 3.98177 19.2605 2.75 17.5979 2.75H15.4021C13.7239 2.75 12.375 3.99609 12.375 5.51432V8.25" stroke="#0D1222" stroke-width="1.65" stroke-miterlimit="10" stroke-linecap="round" stroke-linejoin="round"/>
<circle cx="12.375" cy="16.5" r="1.1" stroke="#0D1222" stroke-width="0.55"/>
<circle cx="20.625" cy="16.5" r="1.1" stroke="#0D1222" stroke-width="0.55"/>
</svg>
